<svg
xmlns="http://www.w3.org/2000/svg" 
  width="200"
  height="45.66240552988825"
  viewBox="20 -2 200 55.99406622400755"
>
<!-- main:
20 -2 200 55.99406622400755"
new
 66 -22 200 205-->
  <g
    featurekey="nameFeature-0"
    fill="#8e8225"
  >
    <path
      d="M10.36 34.2 c0.36 0.28 -0.16 0.6 -0.16 0.6 c-0.32 0.36 -4.8 5.48 -8.16 5.16 c-0.12 0 -0.24 -0.04 -0.36 -0.04 c-0.4 -0.08 -0.92 -0.36 -1.24 -1.12 c-0.88 -2.24 0.56 -4.6 2.28 -5.88 c1.08 -0.8 2.04 -1 2.6 -0.52 c0.28 0.2 0.44 0.52 0.4 0.88 c-0.04 1.2 -2.24 2.8 -2.92 3.24 c0 0 -0.28 0.08 -0.6 -0.24 c-0.32 -0.36 -0.04 -0.72 -0.04 -0.72 c1.2 -0.8 2.28 -1.84 2.4 -2.28 c-0.24 0 -0.96 0.28 -1.8 1.12 c-0.96 1 -1.8 2.56 -1.24 3.96 c0.56 1.08 2.04 0.52 3.24 0.04 c1.28 -0.48 4.04 -2.92 4.68 -3.68 c0 0 0.4 -1 0.92 -0.52 z M24.842 16.48 c-4.48 8.2 -10.64 19.6 -10.36 26.12 c0.04 0.28 0.12 0.56 0.28 0.64 c1.52 0.76 4.36 -5.04 5.4 -6.64 c0 0 0.36 -0.96 0.88 -0.52 c0.36 0.32 -0.12 0.6 -0.12 0.6 c-0.52 0.6 -4.2 7.52 -5.92 7.4 c-1.6 -0.12 -1.64 -1.48 -1.64 -1.48 c-0.16 -7.96 7.48 -21.44 12.44 -30.2 c0 0 0.52 -0.64 1.2 -0.36 c0.52 0.24 0.32 0.92 0.32 0.92 c0 0.04 -0.72 0.72 -2.48 3.52 z M40.004000000000005 32.56 c0.52 0.28 -0.04 0.6 -0.04 0.6 c-0.28 0.72 -8.2 6.44 -9.8 6.72 c-0.08 0.04 -0.16 0.04 -0.2 0.04 c-0.36 0 -0.56 -0.16 -0.68 -0.28 c-0.64 -0.72 3.36 -5.96 3.24 -6.6 c-0.32 0.12 -1.2 0.52 -3.44 2.56 c-0.84 0.76 -1.64 1.56 -2.16 2.12 c-1.4 3.56 -2.48 6.64 -2.96 8.72 l0 -0.04 s-0.16 0.84 -0.68 0.92 s-0.92 -0.68 -0.92 -0.68 c-0.08 -0.36 -0.24 -0.96 3.12 -9.08 l0 0 c0 -0.04 0 -0.04 0.04 -0.08 c1 -2.4 2.28 -5.4 3.96 -9.2 c3.68 -8.28 7.4 -16.48 7.44 -16.56 c0 0 0.36 -0.48 0.76 -0.28 c0.4 0.16 0.32 0.76 0.32 0.76 c-3.4 7.36 -7.2 15.88 -10.04 22.88 c0.12 -0.16 0.28 -0.28 0.44 -0.4 c2.88 -2.64 3.88 -2.88 4.44 -2.76 c0.32 0.04 0.6 0.28 0.72 0.6 c0.4 1.12 -3.36 5.88 -3.44 6.2 c1.28 0.04 3.84 -1.88 6.16 -3.44 c1.6 -1.08 2.76 -2.12 2.92 -2.4 c0 0 0.44 -0.52 0.8 -0.32 z M52.36600000000001 36.04 c0 0 0.32 -0.16 0.48 0 c0.16 0.2 0 0.44 0 0.44 c-1.04 1.24 -4 3.6 -5.6 3.6 c-0.52 0 -0.84 -0.2 -0.96 -0.4 c-0.36 -0.4 -0.56 -1.16 0.44 -3.68 c-3 3.48 -3.96 3.16 -4.32 3.08 c-0.24 -0.08 -0.68 -0.36 -0.76 -1.16 l0 -0.04 c-0.08 -1.68 4.32 -6.32 5.16 -6.24 c0 0 0.6 0.16 0.56 0.44 c0 0.52 -0.52 0.72 -0.72 0.68 c-0.76 -0.36 -3.92 3.76 -3.84 5.08 l0 0.12 c0.48 -0.12 1.88 -1.2 4.08 -3.96 c0.64 -0.84 1.16 -1.44 1.44 -1.8 c0.36 -0.4 0.68 -0.8 1.12 -0.44 c0.16 0.12 0.36 0.4 0.12 0.8 c-1.52 2.88 -2.6 5.76 -2.4 6.36 c0.16 0.6 1.2 0.28 2.56 -0.64 c1 -0.68 2.08 -1.6 2.64 -2.24 z M72.76800000000001 36.48 c0.24 0.28 -0.16 0.64 -0.16 0.64 c-2.16 2.08 -7.4 8.08 -8.64 7.36 c-0.56 -0.32 -0.12 -1.16 0.12 -1.64 c0.24 -0.52 0.6 -1.16 1 -1.88 c0.72 -1.24 1.44 -2.44 2 -3.72 c1.32 -2.64 1.32 -3.16 1.16 -3.2 c-1.24 -0.08 -3.92 2.2 -5.68 5.12 c0 0 -0.44 0.28 -0.8 0.04 c-0.32 -0.2 -0.16 -0.8 -0.16 -0.8 c0 -0.04 0.08 -0.12 0.2 -0.24 c0.44 -0.88 2.6 -4.88 2.56 -5 c-1.12 -0.32 -3.6 2.8 -4.52 4.32 s-1.32 2.16 -1.96 2.08 c-0.12 -0.04 -0.48 -0.16 -0.6 -0.68 c-0.4 -1.84 1.56 -5.48 1.8 -5.92 c0 0 0.36 -0.8 0.96 -0.4 c0.44 0.28 0.04 0.96 0.04 0.96 c-0.6 1.04 -1.36 2.8 -1.64 4.04 c0.16 -0.2 0.28 -0.44 0.44 -0.64 c1.36 -2.28 4 -5.68 6.04 -4.72 l0.08 0 l0.04 0.04 c0.64 0.56 -0.2 1.88 -0.64 3.12 c0.64 -0.6 3.92 -3.28 4.88 -1.76 c0.88 1.52 -1.12 4.52 -3.12 7.96 c-0.16 0.32 -0.36 0.68 -0.56 1 c2.2 -1.08 5.8 -5.24 6.56 -6.16 c0 0 0.36 -0.2 0.6 0.08 z M103.29200000000002 34.2 c0.36 0.28 -0.16 0.6 -0.16 0.6 c-0.32 0.36 -4.8 5.48 -8.16 5.16 c-0.12 0 -0.24 -0.04 -0.36 -0.04 c-0.4 -0.08 -0.92 -0.36 -1.24 -1.12 c-0.88 -2.24 0.56 -4.6 2.28 -5.88 c1.08 -0.8 2.04 -1 2.6 -0.52 c0.28 0.2 0.44 0.52 0.4 0.88 c-0.04 1.2 -2.24 2.8 -2.92 3.24 c0 0 -0.28 0.08 -0.6 -0.24 c-0.32 -0.36 -0.04 -0.72 -0.04 -0.72 c1.2 -0.8 2.28 -1.84 2.4 -2.28 c-0.24 0 -0.96 0.28 -1.8 1.12 c-0.96 1 -1.8 2.56 -1.24 3.96 c0.56 1.08 2.04 0.52 3.24 0.04 c1.28 -0.48 4.04 -2.92 4.68 -3.68 c0 0 0.4 -1 0.92 -0.52 z M111.45400000000002 32.92 c-0.2 0.84 -0.56 1.36 -0.88 1.4 c-0.84 0.16 -0.2 -0.96 -0.28 -1.4 c-0.12 -0.64 -1.12 0 -1.12 0.52 c0 0.84 0.32 1.72 1 2.6 l0.12 0.04 c1.8 -1.48 5.4 -2.4 5.44 -2.4 c0 0 0.2 0.04 0.2 0.2 c0.04 0.12 -0.16 0.4 -0.16 0.4 c-1.28 0 -5 2.6 -5.12 2.6 c0.88 1.48 0 3.8 -1.48 4.72 c-0.6 0.52 -1.36 0.84 -2.2 0.96 c-1.04 -0.16 -1.56 -0.48 -1.56 -1 l0 -0.28 c0 -0.8 3.36 -3.92 3.96 -4.4 c0.08 -0.12 0.08 -0.08 0.08 -0.2 c-0.92 -1.32 -1.36 -2.36 -1.36 -3.16 c0.24 -2.84 3.36 -1.64 3.36 -0.6 z M106.57400000000001 41.44 l0 0.04 c0 0.12 0.16 0.2 0.4 0.2 c1.04 0 3.6 -2.32 3.08 -3.92 l0.04 -0.36 l-0.24 0.36 c-1.84 1.48 -3.28 3.28 -3.28 3.68 z M156.536 17.44 c0.68 0.28 -0.16 0.96 -0.44 0.84 l-0.04 0 c-4.28 -1.84 -16.52 -2.16 -26.2 -1.8 c-4.48 8.2 -10.64 19.6 -10.36 26.12 c0.04 0.28 0.12 0.56 0.28 0.64 c1.52 0.76 4.36 -5.04 5.4 -6.64 c0 0 0.36 -0.96 0.88 -0.52 c0.36 0.32 -0.12 0.6 -0.12 0.6 c-0.52 0.6 -4.2 7.52 -5.92 7.4 c-1.6 -0.12 -1.64 -1.48 -1.64 -1.48 c-0.24 -6.76 5.56 -17.56 10 -26 c-6.64 0.28 -11.92 0.92 -12.04 0.96 c0 0 -0.64 -0.28 -0.64 -0.72 c0 -0.6 0.76 -0.8 0.76 -0.8 c0.56 0 5.96 -0.36 12.64 -0.52 c1.04 -2 1.6 -2.88 1.72 -3.12 c0 0 0.52 -0.64 1.2 -0.36 c0.52 0.24 0.32 0.92 0.32 0.92 c0 0.04 -0.72 0.72 -1.72 2.52 c9.56 -0.2 21.48 0.04 25.92 1.96 z M140.738 34.2 c0.36 0.28 -0.16 0.6 -0.16 0.6 c-0.32 0.36 -4.8 5.48 -8.16 5.16 c-0.12 0 -0.24 -0.04 -0.36 -0.04 c-0.4 -0.08 -0.92 -0.36 -1.24 -1.12 c-0.88 -2.24 0.56 -4.6 2.28 -5.88 c1.08 -0.8 2.04 -1 2.6 -0.52 c0.28 0.2 0.44 0.52 0.4 0.88 c-0.04 1.2 -2.24 2.8 -2.92 3.24 c0 0 -0.28 0.08 -0.6 -0.24 c-0.32 -0.36 -0.04 -0.72 -0.04 -0.72 c1.2 -0.8 2.28 -1.84 2.4 -2.28 c-0.24 0 -0.96 0.28 -1.8 1.12 c-0.96 1 -1.8 2.56 -1.24 3.96 c0.56 1.08 2.04 0.52 3.24 0.04 c1.28 -0.48 4.04 -2.92 4.68 -3.68 c0 0 0.4 -1 0.92 -0.52 z M162.38000000000002 12.96 c-0.12 0.32 -12.88 27.72 -14.92 34.28 c-0.12 0.36 0.52 0.6 0.24 1.04 c0 0 -0.36 0.24 -0.92 0.16 c-0.52 -0.12 -0.44 -0.8 -0.44 -0.8 c0.4 -2.08 3.72 -9.96 7.16 -17.76 c-0.88 1.56 -1.68 2.92 -2.28 3.88 c0.08 0.12 0.12 0.32 0.04 0.52 c-0.16 0.36 -0.36 0.32 -0.52 0.24 c-0.08 0.08 -0.16 0.2 -0.24 0.28 l-0.28 0.4 c-1.4 1.8 -2.64 3.36 -3.96 3.48 c-0.04 0.04 -0.12 0.04 -0.2 0.04 c-0.4 0 -0.8 -0.16 -1.16 -0.44 c-0.44 -0.4 -0.6 -1.04 -0.44 -1.88 c0.32 -1.52 1.72 -3.48 3.44 -3.96 c0.64 -0.16 1.56 -0.2 2.48 0.48 c2.56 -4.08 8.8 -15.8 9.16 -16.48 c1 -2.2 1.68 -3.68 1.8 -3.96 c0 0 0.36 -0.36 0.76 -0.16 c0.44 0.2 0.28 0.64 0.28 0.64 z M149.62000000000003 34.08 c0.04 -0.04 0.2 -0.32 0.24 -0.36 c-0.32 -0.28 -1.2 -0.52 -1.72 -0.4 c-1.2 0.24 -2.28 2.16 -2.56 3.32 c-0.08 0.4 -0.04 0.68 0.04 0.72 c0.24 0.2 0.4 0.2 0.52 0.2 c0.84 -0.12 2.08 -1.68 3.16 -3.08 z M170.30200000000002 16.48 c-4.48 8.2 -10.64 19.6 -10.36 26.12 c0.04 0.28 0.12 0.56 0.28 0.64 c1.52 0.76 4.36 -5.04 5.4 -6.64 c0 0 0.36 -0.96 0.88 -0.52 c0.36 0.32 -0.12 0.6 -0.12 0.6 c-0.52 0.6 -4.2 7.52 -5.92 7.4 c-1.6 -0.12 -1.64 -1.48 -1.64 -1.48 c-0.16 -7.96 7.48 -21.44 12.44 -30.2 c0 0 0.52 -0.64 1.2 -0.36 c0.52 0.24 0.32 0.92 0.32 0.92 c0 0.04 -0.72 0.72 -2.48 3.52 z M181.50400000000002 36.04 c0 0 0.32 -0.16 0.48 0 c0.16 0.2 0 0.44 0 0.44 c-1.04 1.24 -4 3.6 -5.6 3.6 c-0.52 0 -0.84 -0.2 -0.96 -0.4 c-0.36 -0.4 -0.56 -1.16 0.44 -3.68 c-3 3.48 -3.96 3.16 -4.32 3.08 c-0.24 -0.08 -0.68 -0.36 -0.76 -1.16 l0 -0.04 c-0.08 -1.68 4.32 -6.32 5.16 -6.24 c0 0 0.6 0.16 0.56 0.44 c0 0.52 -0.52 0.72 -0.72 0.68 c-0.76 -0.36 -3.92 3.76 -3.84 5.08 l0 0.12 c0.48 -0.12 1.88 -1.2 4.08 -3.96 c0.64 -0.84 1.16 -1.44 1.44 -1.8 c0.36 -0.4 0.68 -0.8 1.12 -0.44 c0.16 0.12 0.36 0.4 0.12 0.8 c-1.52 2.88 -2.6 5.76 -2.4 6.36 c0.16 0.6 1.2 0.28 2.56 -0.64 c1 -0.68 2.08 -1.6 2.64 -2.24 z M197.18600000000004 16.48 c-4.48 8.2 -10.64 19.6 -10.36 26.12 c0.04 0.28 0.12 0.56 0.28 0.64 c1.52 0.76 4.36 -5.04 5.4 -6.64 c0 0 0.36 -0.96 0.88 -0.52 c0.36 0.32 -0.12 0.6 -0.12 0.6 c-0.52 0.6 -4.2 7.52 -5.92 7.4 c-1.6 -0.12 -1.64 -1.48 -1.64 -1.48 c-0.16 -7.96 7.48 -21.44 12.44 -30.2 c0 0 0.52 -0.64 1.2 -0.36 c0.52 0.24 0.32 0.92 0.32 0.92 c0 0.04 -0.72 0.72 -2.48 3.52 z M198.62800000000004 39.72 c-0.4 0 -0.72 -0.2 -0.84 -0.56 c-0.6 -1.52 2.56 -6.4 2.96 -7.44 c0 0 0.44 -1.08 1.16 -1 c0.76 0.08 0.96 0.96 0.8 1.32 c-0.12 0.32 -0.88 0.56 -0.96 0.68 c-1.08 2.44 -3.04 4.84 -2.96 5.84 c1.2 0.8 5.12 -2.92 6.52 -4.24 c0.12 -0.08 0.28 -0.56 0.6 -0.44 c0.4 0.16 0.12 0.52 -0.04 0.68 c-1.32 1.4 -5.08 5.2 -7.16 5.16 l-0.08 0 z M203.62800000000004 28.32 c0 0.4 0 0.76 -0.36 0.76 c-0.32 0 -0.6 -0.36 -0.6 -0.76 c0 -0.44 0.28 -0.76 0.6 -0.76 c0.36 0 0.52 0.36 0.36 0.76 z"
    ></path>
  </g>
</svg>
